<svg width="176" height="176" viewBox="0 0 176 176" fill="none" xmlns="http://www.w3.org/2000/svg">
<g clip-path="url(#clip0)">
<path d="M85.5141 0.568477L6.70288 38.6154C5.7146 39.0925 5.08691 40.0928 5.08691 41.1901V134.81C5.08691 135.907 5.71495 136.907 6.70288 137.384L85.5141 175.431C87.0847 176.19 88.9155 176.19 90.4861 175.431L169.297 137.384C170.286 136.907 170.913 135.907 170.913 134.81V41.1901C170.913 40.0928 170.285 39.0925 169.297 38.6154L90.4861 0.568477C88.9155 -0.189492 87.0847 -0.189492 85.5141 0.568477Z" fill="#FFE17D"/>
<path d="M5.56232 39.625C5.26188 40.0825 5.08691 40.6212 5.08691 41.1901V134.81C5.08691 135.907 5.71495 136.907 6.70288 137.384L85.5141 175.431C86.2992 175.81 87.1497 176 88.0001 176V79.4227L5.56232 39.625Z" fill="#FFC350"/>
<path d="M170.438 39.625C170.738 40.0825 170.913 40.6212 170.913 41.1901V134.81C170.913 135.907 170.285 136.907 169.297 137.384L90.486 175.431C89.7009 175.81 88.8504 176 88 176V79.4227L170.438 39.625Z" fill="#FFD164"/>
<path d="M28.6709 129.819C28.255 129.819 27.8304 129.727 27.4313 129.535L15.2636 123.66C13.8398 122.974 13.2451 121.265 13.9319 119.844C14.616 118.423 16.3303 117.831 17.7486 118.512L29.9163 124.387C31.3401 125.074 31.9348 126.782 31.248 128.203C30.7568 129.225 29.7348 129.819 28.6709 129.819Z" fill="#FFE17D"/>
<path d="M39.8701 122.53C39.4541 122.53 39.0296 122.437 38.6305 122.245L15.2802 110.973C13.8592 110.287 13.2617 108.578 13.9486 107.157C14.6326 105.738 16.3497 105.144 17.7652 105.825L41.1151 117.097C42.5362 117.783 43.1336 119.492 42.4468 120.913C41.9559 121.935 40.934 122.53 39.8701 122.53Z" fill="#FFF6D8"/>
<path d="M142.501 53.0655L59.7738 13.1001L37.9663 23.6704L120.879 63.6977L142.501 53.0655Z" fill="#FF8087"/>
<path d="M120.879 63.6978V94.7064C120.879 95.7603 121.981 96.452 122.931 95.9937L140.885 87.3261C141.874 86.849 142.501 85.8487 142.501 84.7514V53.0659L120.879 63.6978Z" fill="#E6646E"/>
</g>
<defs>
<clipPath id="clip0">
<rect width="176" height="176" fill="white"/>
</clipPath>
</defs>
</svg>
