<svg width="176" height="176" viewBox="0 0 176 176" fill="none" xmlns="http://www.w3.org/2000/svg">
<g clip-path="url(#clip0)">
<path d="M143.775 85.6287L139.305 49.3107L130.927 50.3419L130.93 50.3361L114.688 41.1954C112.956 40.2206 110.967 39.7964 108.988 39.9793L83.342 42.3511C80.1895 42.6426 77.3724 44.4415 75.7819 47.1791L57.7062 78.2911C56.3715 80.5884 57.4192 83.5346 59.9049 84.4734L60.6443 84.7525C62.0667 85.2898 63.5287 85.6009 64.9899 85.7226L62.6995 87.7174L58.1174 91.7097L45.0848 102.826C42.7649 104.847 42.5239 108.364 44.5448 110.684L45.8669 112.198C48.4622 115.174 52.9794 115.483 55.961 112.887L60.9419 118.6C62.5613 120.46 64.9339 121.283 67.2133 121.002C68.5831 120.834 69.9196 120.266 71.0358 119.29L76.0112 125.003C77.6364 126.868 80.0087 127.685 82.288 127.404C83.6579 127.235 84.9947 126.673 86.1112 125.697L88.8151 128.034C91.4111 131.015 95.9335 131.324 98.9152 128.728L102.591 125.521L133.493 101.454L133.526 101.424L145.718 101.412L143.775 85.6287Z" fill="#F29F5C"/>
<path d="M130.532 92.0672L130.499 92.0978L99.5972 116.164L95.9215 119.371C92.9401 121.967 88.4174 121.659 85.8214 118.677L83.1175 116.341C82.001 117.317 80.6638 117.879 79.2943 118.048C77.0149 118.328 74.6431 117.511 73.0175 115.647L68.0421 109.933C66.9256 110.909 65.5891 111.477 64.2196 111.646C61.9402 111.926 59.5676 111.104 57.9482 109.244L52.9673 103.531C50.4146 105.754 46.7393 105.84 44.1051 103.953C42.7542 105.99 42.8621 108.751 44.5462 110.684L45.8682 112.198C48.4635 115.174 52.9807 115.483 55.9624 112.887L60.9433 118.601C62.5627 120.46 64.9353 121.283 67.2147 121.002C68.5845 120.834 69.9207 120.266 71.0372 119.29L76.0126 125.004C77.6378 126.868 80.01 127.685 82.2894 127.405C83.6593 127.236 84.9961 126.673 86.1126 125.698L88.8165 128.034C91.4125 131.016 95.9349 131.324 98.9165 128.728L102.592 125.521L133.494 101.455L133.527 101.424L145.719 101.412L144.37 90.4547L130.532 92.0672Z" fill="#D37D42"/>
<path d="M136.159 107.776L119.603 93.5005L114.999 89.5337L111.704 86.6964L97.5392 74.4864L99.1751 60.5611C99.7286 55.8514 96.7637 51.4422 92.1933 50.1775L61.316 41.6337C58.049 40.7296 54.5961 42.2455 53.0506 45.2626L49.1676 52.8423L32.4999 51.711L28.2306 88.0535L26.375 103.847L42.5993 104.926L42.6329 104.957L76.5272 134.173L80.2208 137.359C83.2166 139.939 87.7372 139.605 90.3167 136.61L95.2598 130.874C96.3815 131.844 97.7218 132.399 99.0926 132.56C101.373 132.828 103.741 131.998 105.356 130.124L110.3 124.383C111.422 125.353 112.761 125.914 114.132 126.074C116.413 126.343 118.781 125.507 120.39 123.638L125.339 117.897C128.335 120.477 132.85 120.143 135.429 117.152L136.743 115.63C138.751 113.3 138.49 109.785 136.159 107.776Z" fill="#F9C295"/>
<path d="M136.159 107.777L131.116 103.428C132.755 105.602 132.721 108.694 130.871 110.841L129.477 112.456C126.739 115.631 121.946 115.985 118.766 113.247L113.512 119.341C111.804 121.325 109.29 122.212 106.869 121.927C105.413 121.757 103.991 121.162 102.801 120.132L97.5523 126.227C95.838 128.215 93.3249 129.097 90.9035 128.812C89.4484 128.642 88.0256 128.052 86.8349 127.022L81.5872 133.112C80.5986 134.26 79.3395 135.034 77.9868 135.433L80.2208 137.36C83.2166 139.94 87.7372 139.606 90.3167 136.61L95.2598 130.875C96.3815 131.844 97.7218 132.399 99.0926 132.561C101.373 132.828 103.741 131.998 105.356 130.125L110.3 124.384C111.422 125.354 112.761 125.914 114.132 126.075C116.413 126.343 118.781 125.508 120.39 123.639L125.339 117.898C128.335 120.477 132.85 120.143 135.429 117.153L136.743 115.631C138.751 113.3 138.49 109.785 136.159 107.777Z" fill="#E59F6A"/>
<path d="M127.015 115.986L117.943 108.164C116.865 107.235 115.237 107.355 114.307 108.433C113.377 109.512 113.498 111.139 114.576 112.069L123.632 119.878L125.339 117.898C126.02 118.485 126.782 118.913 127.58 119.201C128.169 118.153 127.96 116.801 127.015 115.986Z" fill="#E59F6A"/>
<path d="M112.51 125.684C113.131 124.63 112.932 123.252 111.973 122.425L103.823 115.399C102.745 114.469 101.117 114.589 100.187 115.668C99.2573 116.746 99.3779 118.374 100.456 119.304L108.606 126.33C108.609 126.333 108.613 126.336 108.616 126.338L110.3 124.383C110.971 124.964 111.722 125.394 112.51 125.684Z" fill="#E59F6A"/>
<path d="M43.4446 104.89L41.4808 107.483C39.3423 110.307 39.8978 114.33 42.7217 116.469C45.5456 118.607 49.5685 118.051 51.7073 115.228L53.6711 112.634C55.8096 109.81 55.2541 105.788 52.4302 103.649C49.6063 101.51 45.5831 102.066 43.4446 104.89Z" fill="#F29F5C"/>
<path d="M55.4057 110.344L51.7073 115.227C49.5689 118.051 50.1244 122.074 52.9483 124.213C55.7722 126.351 59.795 125.796 61.9338 122.972L65.6322 118.088C67.7707 115.265 67.2152 111.242 64.3913 109.103C61.5671 106.964 57.5442 107.52 55.4057 110.344Z" fill="#F29F5C"/>
<path d="M66.9738 116.317L61.9334 122.972C59.7949 125.796 60.3504 129.819 63.1743 131.958C65.9982 134.096 70.0211 133.541 72.1599 130.717L77.2003 124.061C79.3388 121.237 78.7833 117.214 75.9594 115.076C73.1355 112.937 69.1126 113.493 66.9738 116.317Z" fill="#F29F5C"/>
<path d="M77.4929 123.675L72.16 130.717C70.0215 133.54 70.577 137.563 73.4009 139.702C76.2248 141.841 80.2477 141.285 82.3865 138.461L87.7194 131.419C89.8579 128.596 89.3024 124.573 86.4785 122.434C83.6542 120.295 79.6313 120.851 77.4929 123.675Z" fill="#F29F5C"/>
<path d="M130.931 50.3361L114.688 41.1954C112.956 40.2206 110.968 39.7964 108.988 39.9793L83.3424 42.3511C80.1898 42.6426 77.3728 44.4415 75.7823 47.1791L57.7066 78.2911C56.3718 80.5887 57.4196 83.5346 59.9052 84.4734L60.6446 84.7525C67.2704 87.255 74.7531 85.1255 79.0682 79.5097L85.9937 70.4966C85.9937 70.4966 102.641 89.7716 120.97 67.2619" fill="#F29F5C"/>
<path d="M175.98 106.268L167.485 37.2602C167.402 36.5816 167.052 35.9639 166.513 35.5431C165.974 35.1224 165.291 34.9333 164.612 35.0165L144.747 37.462C139.588 38.0972 135.907 42.8114 136.542 47.9703L143.364 103.383C143.951 108.153 148.025 111.659 152.714 111.659C153.096 111.659 153.483 111.635 153.872 111.588L173.737 109.142C175.15 108.968 176.154 107.681 175.98 106.268Z" fill="#5C9CEE"/>
<path d="M175.98 106.268L175.048 98.6934C174.625 99.3138 173.95 99.7573 173.146 99.8563L152.323 102.42C151.915 102.47 151.509 102.494 151.109 102.494C147.602 102.494 144.426 100.623 142.668 97.7367L143.364 103.382C143.951 108.153 148.024 111.659 152.713 111.659C153.096 111.659 153.483 111.635 153.872 111.587L173.736 109.142C175.15 108.968 176.154 107.681 175.98 106.268Z" fill="#3580D3"/>
<path d="M31.2529 37.4616L11.3884 35.0162C10.7088 34.9326 10.0258 35.122 9.48675 35.5428C8.94776 35.9635 8.59816 36.5812 8.51463 37.2598L0.0195716 106.268C-0.154365 107.681 0.850412 108.968 2.26322 109.142L22.1278 111.587C22.5169 111.635 22.9036 111.658 23.2862 111.658C27.9749 111.658 32.049 108.152 32.6362 103.382L39.4575 47.97C40.0928 42.811 36.4122 38.0968 31.2529 37.4616Z" fill="#ED5575"/>
<path d="M0.0195769 106.268L0.952167 98.6934C1.37498 99.3138 2.0501 99.7573 2.85378 99.8563L23.677 102.42C24.0847 102.47 24.4907 102.494 24.8915 102.494C28.3978 102.494 31.5743 100.623 33.3316 97.7367L32.6365 103.382C32.0494 108.153 27.9756 111.659 23.2866 111.659C22.9043 111.659 22.5169 111.635 22.1281 111.587L2.26357 109.142C0.850074 108.968 -0.15436 107.681 0.0195769 106.268Z" fill="#CC3A60"/>
<path d="M159.499 100.202C162.252 100.202 164.483 97.9711 164.483 95.2187C164.483 92.4663 162.252 90.235 159.499 90.235C156.747 90.235 154.516 92.4663 154.516 95.2187C154.516 97.9711 156.747 100.202 159.499 100.202Z" fill="#EBEEF2"/>
<path d="M16.2215 100.202C18.9739 100.202 21.2051 97.9711 21.2051 95.2187C21.2051 92.4663 18.9739 90.235 16.2215 90.235C13.4691 90.235 11.2378 92.4663 11.2378 95.2187C11.2378 97.9711 13.4691 100.202 16.2215 100.202Z" fill="#EBEEF2"/>
</g>
<defs>
<clipPath id="clip0">
<rect width="176" height="176" fill="white"/>
</clipPath>
</defs>
</svg>
