<svg width="173" height="173" viewBox="0 0 173 173" fill="none" xmlns="http://www.w3.org/2000/svg">
<path d="M104.036 17.8627C103.837 17.0507 103.109 16.48 102.273 16.4795H70.9394C70.1025 16.479 69.3735 17.0502 69.1732 17.8627L65.7153 31.8151H107.477L104.036 17.8627Z" fill="#F7BE56"/>
<path d="M73.7202 19.6753H77.4398V23.3948H73.7202V19.6753Z" fill="#3A556A"/>
<path d="M77.3438 23.299H81.0633V27.0185H77.3438V23.299Z" fill="#3A556A"/>
<path d="M81.0635 19.6753H84.783V23.3948H81.0635V19.6753Z" fill="#3A556A"/>
<path d="M84.6865 23.299H88.4061V27.0185H84.6865V23.299Z" fill="#3A556A"/>
<path d="M88.4092 19.6753H92.1287V23.3948H88.4092V19.6753Z" fill="#3A556A"/>
<path d="M92.0322 23.299H95.7518V27.0185H92.0322V23.299Z" fill="#3A556A"/>
<path d="M95.752 19.6753H99.4715V23.3948H95.752V19.6753Z" fill="#3A556A"/>
<path d="M145.278 121.723L157.993 121.647C160.417 121.633 162.394 123.586 162.408 126.01L162.559 151.259C162.573 153.683 160.62 155.66 158.196 155.674L145.481 155.75C143.057 155.765 141.08 153.811 141.066 151.388L140.915 126.138C140.901 123.714 142.854 121.737 145.278 121.723Z" fill="#2F4859"/>
<path d="M15.8735 122.493L28.5886 122.417C31.0124 122.403 32.9893 124.356 33.0038 126.78L33.1546 152.029C33.169 154.453 31.2156 156.43 28.7918 156.444L16.0768 156.52C13.653 156.535 11.6761 154.581 11.6616 152.158L11.5108 126.908C11.4963 124.484 13.4497 122.507 15.8735 122.493Z" fill="#2F4859"/>
<path d="M159.733 60.2264C158.671 60.3263 157.862 61.2241 157.873 62.2912C158.134 64.3729 156.801 66.3218 154.766 66.8331L151.602 66.8506L153.227 71.5903C153.227 71.5903 173.597 71.4695 172.987 64.7784C172.512 59.5793 163.672 59.8484 159.733 60.2264Z" fill="#2F4859"/>
<path d="M13.2668 60.2264C14.3294 60.3263 15.1378 61.2241 15.1268 62.2912C14.8662 64.3729 16.1994 66.3218 18.2342 66.8331L21.398 66.8506L19.7727 71.5903C19.7727 71.5903 -0.596748 71.4695 0.0134404 64.7784C0.48781 59.5793 9.32756 59.8484 13.2668 60.2264Z" fill="#2F4859"/>
<path d="M168.447 99.9475C168.066 94.9721 166.628 90.1356 164.229 85.7604L155.658 70.0173C155.658 70.0173 140.399 35.6585 134.046 32.9241C127.906 30.2812 88.7236 29.6934 86.1126 29.6515H85.9718C83.3732 29.7184 44.1883 30.7825 38.0799 33.4974C31.7618 36.3081 16.9201 70.8447 16.9201 70.8447L8.52222 86.6917C6.17434 91.0938 4.79318 95.9468 4.47161 100.926C3.88139 111.924 5.06632 122.945 7.98144 133.566C9.35362 138.574 13.928 142.03 19.1206 141.981L86.6384 141.581H86.7792L154.287 141.178C159.481 141.164 164.014 137.654 165.327 132.63C168.114 121.973 169.167 110.938 168.447 99.9475Z" fill="#FCD462"/>
<path d="M53.6739 120.37L119.457 119.976C120.635 119.969 121.595 120.918 121.602 122.095L121.669 133.296C121.676 134.473 120.727 135.433 119.55 135.44L53.7668 135.834C52.5893 135.841 51.6296 134.893 51.6226 133.716L51.5552 122.514C51.5482 121.338 52.497 120.377 53.6739 120.37Z" fill="#3A556A"/>
<path d="M135.276 38.1083C134.591 36.6123 133.11 35.64 131.465 35.6061L86.4827 34.6848H86.3419L41.3722 36.1444C39.7299 36.2008 38.2638 37.1895 37.5957 38.691L24.6929 67.7149L86.5372 67.3444H86.678L148.522 66.9889L135.276 38.1083Z" fill="#2F4859"/>
<path d="M149.92 118.086C145.585 118.116 142.096 121.655 142.126 125.99C142.156 130.325 145.694 133.814 150.029 133.784C154.361 133.755 157.85 130.221 157.824 125.888C157.798 121.553 154.263 118.06 149.928 118.086C149.925 118.086 149.923 118.086 149.92 118.086Z" fill="#EBF0F3"/>
<path d="M23.853 118.837C19.5168 118.866 16.0244 122.405 16.0534 126.741C16.0824 131.077 19.6207 134.569 23.9569 134.54C28.2921 134.511 31.784 130.975 31.7565 126.639C31.7306 122.304 28.1958 118.811 23.8605 118.837C23.858 118.837 23.8555 118.837 23.853 118.837Z" fill="#EBF0F3"/>
<path d="M147.342 87.1831C134.35 88.8009 131.04 99.6735 130.181 104.875C129.974 106.161 130.85 107.371 132.136 107.578C132.28 107.601 132.427 107.611 132.574 107.607C138.167 107.501 143.75 107.068 149.293 106.31C158.73 104.927 164.52 85.0444 147.342 87.1831Z" fill="#E1E6E9"/>
<path d="M148.463 91.2487C145.713 91.5009 143.688 93.9336 143.941 96.683C144.193 99.4323 146.626 101.457 149.375 101.205C152.124 100.953 154.149 98.5201 153.897 95.7707C153.897 95.7682 153.896 95.7662 153.896 95.7637C153.641 93.0174 151.21 90.9971 148.463 91.2487Z" fill="#BDBEC1"/>
<path d="M138.143 96.5591C136.054 96.7524 134.517 98.6024 134.71 100.691C134.903 102.78 136.754 104.317 138.842 104.124C140.931 103.931 142.468 102.081 142.275 99.9921C142.083 97.9043 140.236 96.3669 138.148 96.5586C138.147 96.5586 138.145 96.5586 138.143 96.5591Z" fill="#BDBEC1"/>
<path d="M25.8737 87.1831C38.8654 88.8009 42.175 99.6735 43.0324 104.875C43.2386 106.161 42.3632 107.371 41.0775 107.578C40.9326 107.601 40.7858 107.611 40.639 107.607C35.0455 107.501 29.4629 107.068 23.9203 106.31C14.4848 104.927 8.69751 85.0444 25.8737 87.1831Z" fill="#E1E6E9"/>
<path d="M24.7519 91.2487C27.5012 91.5009 29.526 93.9336 29.2739 96.683C29.0217 99.4323 26.5889 101.457 23.8396 101.205C21.0902 100.953 19.0654 98.5201 19.3176 95.7707C19.3176 95.7682 19.3181 95.7662 19.3181 95.7637C19.5738 93.0174 22.005 90.9971 24.7519 91.2487Z" fill="#BDBEC1"/>
<path d="M35.0712 96.5589C37.16 96.7532 38.6959 98.6042 38.5017 100.693C38.3074 102.782 36.4564 104.318 34.3672 104.124C32.2795 103.93 30.744 102.08 30.9367 99.9924C31.1295 97.9031 32.9795 96.3662 35.0687 96.5589C35.0692 96.5584 35.0702 96.5584 35.0712 96.5589Z" fill="#BDBEC1"/>
<path d="M46.2822 93.3132L53.2225 107.609H118.431L126.923 93.3132H46.2822Z" fill="#3A556A"/>
</svg>
